<svg xmlns="http://www.w3.org/2000/svg" xmlns:xlink="http://www.w3.org/1999/xlink" version="1.1" x="0px" y="0px"
    viewBox="0 0 450 562.5" style="enable-background:new 0 0 450 450;" xml:space="preserve">
    <g>
        <g>
            <path
                d="M441,389.9H68.9c-2.8,0-5-2.2-5-5V145.8c0-2.8,2.2-5,5-5H441c2.8,0,5,2.2,5,5v239.1C446,387.6,443.8,389.9,441,389.9z     M73.9,379.9H436V150.8H73.9V379.9z" />
        </g>
        <g>
            <path
                d="M68.9,389.9c-2.2,0-4.2-1.5-4.8-3.7L4.2,162.7c-0.7-2.7,0.9-5.4,3.5-6.1l359.5-96.3c2.7-0.7,5.4,0.9,6.1,3.5l21.6,80.7    c0.7,2.7-0.9,5.4-3.5,6.1c-2.7,0.7-5.4-0.9-6.1-3.5l-20.3-75.9L15.1,165l58.6,218.6c0.7,2.7-0.9,5.4-3.5,6.1    C69.7,389.8,69.3,389.9,68.9,389.9z" />
        </g>
        <g>
            <path
                d="M36.3,268.4c-2.2,0-4.2-1.5-4.8-3.7c-0.7-2.7,0.9-5.4,3.5-6.1l32.5-8.7c2.7-0.7,5.4,0.9,6.1,3.5s-0.9,5.4-3.5,6.1    l-32.5,8.7C37.2,268.4,36.8,268.4,36.3,268.4z M20.7,210.1c-2.2,0-4.2-1.5-4.8-3.7c-0.7-2.7,0.9-5.4,3.5-6.1l48.2-12.9    c2.7-0.7,5.4,0.9,6.1,3.5s-0.9,5.4-3.5,6.1L22,209.9C21.6,210,21.1,210.1,20.7,210.1z M241.9,150.8c-2.2,0-4.2-1.5-4.8-3.7    c-0.7-2.7,0.9-5.4,3.5-6.1l138.3-37.1c2.7-0.7,5.4,0.9,6.1,3.5c0.7,2.7-0.9,5.4-3.5,6.1l-138.3,37.1    C242.7,150.8,242.3,150.8,241.9,150.8z" />
        </g>
        <g>
            <path d="M179.7,288.6h-62.2c-2.8,0-5-2.2-5-5s2.2-5,5-5h62.2c2.8,0,5,2.2,5,5S182.5,288.6,179.7,288.6z" />
        </g>
        <g>
            <path
                d="M183.8,256.3h-70.4c-2.8,0-5-2.2-5-5v-70.4c0-2.8,2.2-5,5-5h70.4c2.8,0,5,2.2,5,5v70.4    C188.8,254.1,186.6,256.3,183.8,256.3z M118.4,246.3h60.4v-60.4h-60.4V246.3z" />
        </g>
        <g>
            <g>
                <path
                    d="M185.3,354.8h-70.4c-2.8,0-5-2.2-5-5v-28.9c0-2.8,2.2-5,5-5h70.4c2.8,0,5,2.2,5,5v28.9     C190.3,352.5,188,354.8,185.3,354.8z M119.9,344.8h60.4v-18.9h-60.4V344.8z" />
            </g>
            <g>
                <path
                    d="M290.9,354.8h-70.4c-2.8,0-5-2.2-5-5v-28.9c0-2.8,2.2-5,5-5h70.4c2.8,0,5,2.2,5,5v28.9     C295.9,352.5,293.6,354.8,290.9,354.8z M225.5,344.8h60.4v-18.9h-60.4L225.5,344.8L225.5,344.8z" />
            </g>
            <g>
                <path
                    d="M396.5,354.8h-70.4c-2.8,0-5-2.2-5-5v-28.9c0-2.8,2.2-5,5-5h70.4c2.8,0,5,2.2,5,5v28.9     C401.5,352.5,399.3,354.8,396.5,354.8z M331.1,344.8h60.4v-18.9h-60.4V344.8z" />
            </g>
        </g>
        <g>
            <g>
                <path d="M326.5,185.9h-82c-2.8,0-5-2.2-5-5s2.2-5,5-5h82c2.8,0,5,2.2,5,5S329.2,185.9,326.5,185.9z" />
            </g>
            <g>
                <path d="M387.5,221.1h-143c-2.8,0-5-2.2-5-5s2.2-5,5-5h143c2.8,0,5,2.2,5,5S390.2,221.1,387.5,221.1z" />
            </g>
            <g>
                <path d="M387.5,256.3h-143c-2.8,0-5-2.2-5-5s2.2-5,5-5h143c2.8,0,5,2.2,5,5S390.2,256.3,387.5,256.3z" />
            </g>
        </g>
    </g><text x="0" y="465" fill="#000000" font-size="5px" font-weight="bold"
        font-family="'Helvetica Neue', Helvetica, Arial-Unicode, Arial, Sans-serif">Created by SAM Designs</text><text
        x="0" y="470" fill="#000000" font-size="5px" font-weight="bold"
        font-family="'Helvetica Neue', Helvetica, Arial-Unicode, Arial, Sans-serif">from the Noun Project</text>
</svg>